Coordinates
version=1
nRows=19
nColumns=34
inDegrees=no

Units are S.I. units (second, meters, Newtons, ...)
If the header above contains a line with 'inDegrees', this indicates whether rotational values are in degrees (yes) or radians (no).

endheader
time	pelvis_tilt	pelvis_list	pelvis_rotation	pelvis_tx	pelvis_ty	pelvis_tz	hip_flexion_r	hip_adduction_r	hip_rotation_r	knee_angle_r	ankle_angle_r	subtalar_angle_r	mtp_angle_r	hip_flexion_l	hip_adduction_l	hip_rotation_l	knee_angle_l	ankle_angle_l	subtalar_angle_l	mtp_angle_l	lumbar_extension	lumbar_bending	lumbar_rotation	arm_flex_r	arm_add_r	arm_rot_r	elbow_flex_r	pro_sup_r	arm_flex_l	arm_add_l	arm_rot_l	elbow_flex_l	pro_sup_l
6.74	-0.685897	-0.061971	0.0158348	-0.37615	0.647329	-0.652181	1.90778	-0.405064	-0.13019	1.68729	0.523431	0.0702887	-0.00815994	1.97435	-0.398475	-0.00307636	1.68038	0.536634	0.332151	-0.00815612	-0.414956	0.0799772	0.0401463	1.60853	-0.189007	0.307822	2.07716	1.77821	1.59532	-0.186465	0.390723	2.07193	1.99813
6.75	-0.683279	-0.061065	0.0179471	-0.375515	0.653783	-0.652178	1.89174	-0.40383	-0.13358	1.67158	0.520052	0.0680578	-0.00815991	1.95599	-0.394173	-0.0086929	1.66361	0.533087	0.328285	-0.00815607	-0.411532	0.0798472	0.0384478	1.60109	-0.189531	0.307075	2.07932	1.77812	1.58758	-0.186364	0.39131	2.07258	2.0038
6.76	-0.68036	-0.0598909	0.0202636	-0.374788	0.660266	-0.652223	1.87551	-0.402835	-0.136606	1.65589	0.516687	0.0660319	-0.00815989	1.93715	-0.389603	-0.0145169	1.64676	0.529421	0.324159	-0.00815603	-0.408015	0.0796286	0.0364593	1.59333	-0.189949	0.306397	2.0814	1.7776	1.57946	-0.186239	0.391545	2.07346	2.00843
6.77	-0.67716	-0.058503	0.0227449	-0.373969	0.666764	-0.65231	1.8591	-0.402067	-0.139345	1.64024	0.513344	0.0642008	-0.00815986	1.91794	-0.384784	-0.0204517	1.62986	0.525661	0.319793	-0.00815598	-0.404368	0.0793491	0.0342426	1.58521	-0.190292	0.30579	2.0834	1.77685	1.5709	-0.186105	0.391441	2.07463	2.01163
6.78	-0.673724	-0.0569961	0.0252921	-0.373056	0.673258	-0.652426	1.84252	-0.401443	-0.141936	1.62465	0.510033	0.0625362	-0.00815983	1.89852	-0.379808	-0.0263418	1.61297	0.521843	0.315252	-0.00815593	-0.400523	0.0790504	0.0319494	1.57669	-0.190619	0.30524	2.08533	1.77614	1.56187	-0.185954	0.391049	2.07612	2.01327
6.79	-0.670095	-0.0554874	0.0277607	-0.372048	0.67973	-0.652554	1.82574	-0.400829	-0.144549	1.60913	0.506769	0.0609978	-0.00815981	1.87906	-0.374828	-0.0319991	1.59615	0.518012	0.310634	-0.00815588	-0.396415	0.0787826	0.0297927	1.56774	-0.190999	0.304726	2.08718	1.77582	1.55233	-0.185751	0.390423	2.0779	2.01336
6.8	-0.666289	-0.0540829	0.0299931	-0.370944	0.686167	-0.652675	1.80874	-0.400064	-0.147343	1.59368	0.503569	0.0595485	-0.00815978	1.85969	-0.370026	-0.0372533	1.5795	0.514222	0.30605	-0.00815584	-0.392026	0.0785848	0.0279938	1.55836	-0.191484	0.304227	2.08895	1.77619	1.54225	-0.185456	0.389617	2.0799	2.01206
6.81	-0.662297	-0.052851	0.0318504	-0.369743	0.692563	-0.652774	1.79147	-0.399002	-0.150428	1.5783	0.500449	0.058163	-0.00815975	1.84046	-0.365579	-0.0419928	1.5631	0.510529	0.301608	-0.00815579	-0.387378	0.0784674	0.026731	1.54859	-0.192094	0.303721	2.09062	1.7775	1.53166	-0.185041	0.388695	2.08206	2.00962
6.82	-0.658095	-0.051816	0.0332327	-0.368445	0.698912	-0.652838	1.77389	-0.397531	-0.153849	1.56301	0.497411	0.0568275	-0.00815973	1.8214	-0.361632	-0.0461782	1.54699	0.506978	0.297399	-0.00815574	-0.382517	0.0784107	0.0261155	1.53844	-0.192825	0.303179	2.09217	1.77986	1.52062	-0.184502	0.38774	2.08428	2.00635
6.83	-0.653661	-0.0509655	0.0340837	-0.36705	0.705212	-0.652859	1.75601	-0.395583	-0.157595	1.54781	0.494439	0.055533	-0.0081597	1.80247	-0.358284	-0.0498344	1.53123	0.503606	0.293488	-0.00815569	-0.37749	0.0783723	0.026189	1.52795	-0.193645	0.302561	2.09359	1.78324	1.5092	-0.183863	0.386858	2.08646	2.00263
6.84	-0.648986	-0.0502574	0.0343909	-0.365562	0.711461	-0.652833	1.73786	-0.393138	-0.161609	1.53272	0.491497	0.0542748	-0.00815968	1.78362	-0.355581	-0.0530402	1.51583	0.500436	0.289912	-0.00815565	-0.372334	0.078297	0.0269291	1.51714	-0.194506	0.301823	2.09489	1.78748	1.4975	-0.183169	0.38616	2.08847	1.99896
6.85	-0.644072	-0.0496277	0.0341891	-0.363986	0.717657	-0.65276	1.71948	-0.390231	-0.165796	1.51773	0.488541	0.0530582	-0.00815965	1.76481	-0.353512	-0.0559199	1.50077	0.497471	0.286676	-0.0081556	-0.367073	0.0781267	0.0282517	1.50601	-0.195353	0.300916	2.0961	1.79226	1.4856	-0.182479	0.385746	2.09021	1.99592
6.86	-0.638934	-0.0490027	0.033554	-0.362325	0.723801	-0.652646	1.70094	-0.386942	-0.170041	1.50287	0.48553	0.0519012	-0.00815962	1.74596	-0.352012	-0.0586271	1.48602	0.494702	0.283765	-0.00815555	-0.361718	0.07781	0.0300208	1.49457	-0.196126	0.299797	2.09722	1.7972	1.47358	-0.181855	0.385682	2.0916	1.99404
6.87	-0.6336	-0.0483152	0.0325824	-0.360587	0.729892	-0.6525	1.68233	-0.383379	-0.174235	1.48814	0.482443	0.0508274	-0.0081596	1.72703	-0.350989	-0.0613173	1.47151	0.492098	0.281145	-0.0081555	-0.356268	0.0773111	0.032071	1.48281	-0.196766	0.298431	2.0983	1.80197	1.46147	-0.18136	0.38599	2.09262	1.9936
6.88	-0.628115	-0.0475186	0.0313687	-0.358777	0.73593	-0.652328	1.6637	-0.379638	-0.178293	1.47351	0.47928	0.0498558	-0.00815957	1.70798	-0.350345	-0.064123	1.4572	0.48962	0.278785	-0.00815546	-0.350702	0.0766133	0.0342338	1.47071	-0.197206	0.296794	2.09933	1.80636	1.44931	-0.181054	0.386634	2.09329	1.99459
6.89	-0.622536	-0.0465913	0.0299875	-0.356903	0.741913	-0.652135	1.64513	-0.375787	-0.182159	1.45897	0.476065	0.0489919	-0.00815954	1.68883	-0.350003	-0.0671393	1.44302	0.487226	0.276658	-0.00815541	-0.344986	0.0757174	0.0363618	1.45826	-0.197383	0.294883	2.10031	1.81022	1.43706	-0.180988	0.387529	2.09372	1.99666
6.9	-0.61693	-0.0455371	0.0284796	-0.354973	0.747841	-0.651921	1.62665	-0.371842	-0.185808	1.44448	0.472837	0.0482196	-0.00815952	1.66962	-0.349916	-0.0704165	1.42891	0.484878	0.274749	-0.00815536	-0.339079	0.0746356	0.0383523	1.44544	-0.197242	0.292718	2.10125	1.81349	1.42472	-0.181199	0.388559	2.09405	1.99928
6.91	-0.611362	-0.0443808	0.0268457	-0.352993	0.753712	-0.651682	1.60833	-0.367767	-0.189236	1.43001	0.469634	0.0474946	-0.00815949	1.6504	-0.35008	-0.0739568	1.41483	0.482552	0.27305	-0.00815532	-0.332941	0.0733871	0.0401626	1.43224	-0.196747	0.290338	2.10213	1.81622	1.41225	-0.181702	0.389609	2.09437	2.00191
6.92	-0.605897	-0.0431631	0.0250597	-0.350971	0.759523	-0.651411	1.59021	-0.363487	-0.192453	1.41552	0.466481	0.0467476	-0.00815946	1.63127	-0.350513	-0.0777216	1.40077	0.480233	0.271551	-0.00815527	-0.326533	0.0719985	0.0418017	1.41867	-0.195893	0.287797	2.10296	1.81856	1.39966	-0.1825	0.390581	2.09476	2.00418
